
<svg xmlns="http://www.w3.org/2000/svg" width="57" height="68" viewBox="0 0 57 68" fill="none">
  <path d="M48.8582 39.4248C54.9587 27.2984 56.5189 18.4119 56.3405 12.249C56.2318 8.68524 55.5434 6.06154 54.8453 4.28671C54.5752 3.58934 54.2495 2.91478 53.8715 2.26951C53.762 2.08266 53.6456 1.89993 53.5226 1.72171C53.3378 1.42562 53.0847 1.17814 52.7846 1C52.4583 0.817636 52.0909 0.721563 51.7172 0.720883C51.5 0.710932 51.2826 0.708638 51.0653 0.714011C50.3106 0.7311 49.5583 0.806374 48.8152 0.939164C46.9175 1.26611 44.2855 2.03284 41.1373 3.7578C35.7047 6.72735 28.8084 12.4961 21.4799 23.6133L12.6422 26.9447L12.6183 26.954C10.5028 27.7803 8.73155 29.3021 7.596 31.269L1 42.6936C0.790119 43.0571 0.699936 43.4775 0.742229 43.8951C0.784522 44.3127 0.957147 44.7065 1.23565 45.0205C1.51415 45.3346 1.88441 45.5531 2.29398 45.645C2.70355 45.737 3.13167 45.6977 3.51769 45.5328L10.4148 42.5867C11.4338 42.1496 12.6697 42.041 14.1598 42.1161C15.1171 42.17 15.9779 42.279 16.8869 42.3927L17.7408 42.4977C19.3096 45.3804 21.8401 47.7974 24.7846 49.4974C27.7291 51.1974 31.0876 52.1804 34.3684 52.0977C34.5405 52.3357 34.7137 52.5557 34.8814 52.7773C35.4393 53.515 35.9641 54.206 36.4894 55.0081C37.2995 56.261 37.8234 57.3856 37.9544 58.4867L38.8515 65.9328C38.9017 66.3496 39.0818 66.74 39.3662 67.0487C39.6506 67.3574 40.025 67.5688 40.4362 67.653C40.8474 67.7371 41.2747 67.6898 41.6576 67.5176C42.0404 67.3454 42.3593 67.0571 42.5692 66.6936L49.1652 55.269C50.3008 53.3021 50.7331 51.0073 50.3909 48.7621L48.8582 39.4248ZM45.751 45.1826L45.641 45.3731C43.909 48.373 41.4872 50.2957 38.7629 51.2863C39.1407 51.8 39.5145 52.3206 39.8372 52.8256C40.7942 54.288 41.6885 56.0191 41.9277 58.0047L42.1051 59.4974L45.7011 53.269C46.3806 52.0923 46.6405 50.7197 46.4384 49.376L45.751 45.1826ZM16.2463 38.2863C15.742 35.4317 16.1962 32.373 17.9282 29.3731L18.0362 29.186L14.0649 30.6806C12.7988 31.1779 11.7393 32.0905 11.0601 33.269L7.4641 39.4974L8.84352 38.9082C10.6828 38.1226 12.631 38.028 14.376 38.1256C14.9728 38.1561 15.6125 38.216 16.2463 38.2863ZM50.6698 4.73498C50.808 4.99955 50.9668 5.34061 51.1267 5.75163C51.6585 7.10252 52.2507 9.26884 52.3425 12.3657C52.5154 18.5623 50.7029 28.6056 42.1769 43.3731C40.4609 46.3453 37.9213 47.7519 35.1243 48.0446C32.4677 48.326 29.4901 47.5953 26.7846 46.0333C24.0791 44.4713 21.9576 42.258 20.873 39.8166C19.7264 37.2425 19.6763 34.3453 21.3923 31.3731C29.7563 16.8862 37.5434 10.2785 43.0576 7.26367C45.8144 5.76073 48.0275 5.13551 49.4943 4.88306C49.958 4.79979 50.3512 4.75887 50.6698 4.73498Z" fill="url(#paint0_linear_393_914)"/>
  <defs>
    <linearGradient id="paint0_linear_393_914" x1="52.7846" y1="1" x2="20.7846" y2="56.4256" gradientUnits="userSpaceOnUse">
      <stop stop-color="white"/>
      <stop offset="1" stop-color="#FF00B8"/>
    </linearGradient>
  </defs>
</svg>